<?xml version="1.0" encoding="utf-8"?>
<!-- Generator: Adobe Illustrator 27.5.0, SVG Export Plug-In . SVG Version: 6.00 Build 0)  -->
<svg version="1.1" id="Capa_1" xmlns="http://www.w3.org/2000/svg" xmlns:xlink="http://www.w3.org/1999/xlink" x="0px" y="0px"
	 viewBox="0 0 453.543 425.196" style="enable-background:new 0 0 453.543 425.196;" xml:space="preserve">
<polygon style="fill:#8DA4CE;" points="39.563,188.283 39.563,196.371 39.563,274.631 161.934,274.631 161.934,196.371 
	161.934,188.283 "/>
<rect style="fill:#FFFFFF;" width="453.543" height="425.196"/>
<g>
	<g>
		<path style="fill:#9EABD3;" d="M166.527,375.508l-17.023,18.995c0,1.695,1.375,3.065,3.066,3.065h148.408
			c1.692,0,3.063-1.37,3.063-3.065l-17.021-18.995H166.527z"/>
		<g>
			<path style="fill:#184892;" d="M168.881,155.801c-1.711,0-3.096,1.385-3.096,3.096v215.888c0,1.707,1.385,3.091,3.096,3.091
				h115.781c1.707,0,3.096-1.384,3.096-3.091V158.896c0-1.711-1.389-3.096-3.096-3.096H168.881z"/>
			<g>
				<rect x="165.785" y="169.755" style="fill:#6A54A1;" width="121.973" height="194.17"/>
				<polygon style="opacity:0.3;fill:#FFFFFF;" points="287.758,363.925 165.785,363.925 165.785,169.755 				"/>
			</g>
			<g>
				<path style="fill:#012257;" d="M243.611,163.095c0,0.921-0.746,1.666-1.666,1.666c-0.918,0-1.666-0.745-1.666-1.666
					c0-0.918,0.748-1.664,1.666-1.664C242.865,161.431,243.611,162.177,243.611,163.095z"/>
				<path style="fill:#012257;" d="M239.768,163.095c0,0.825-0.668,1.492-1.49,1.492h-26.852c-0.826,0-1.494-0.667-1.494-1.492l0,0
					c0-0.823,0.668-1.491,1.494-1.491h26.852C239.1,161.604,239.768,162.271,239.768,163.095L239.768,163.095z"/>
			</g>
		</g>
	</g>
	<path style="fill:#8DA4CE;" d="M275.574,246.549c0,21.746-17.629,39.37-39.375,39.37c-21.746,0-39.373-17.624-39.373-39.37
		c0-21.743,17.627-39.371,39.373-39.371C257.945,207.178,275.574,224.806,275.574,246.549z"/>
	<g>
		<g>
			<defs>
				<path id="SVGID_1_" d="M266.145,244.183c0,21.746-17.627,39.372-39.375,39.372c-21.744,0-39.373-17.626-39.373-39.372
					c0-21.74,17.629-39.37,39.373-39.37C248.518,204.813,266.145,222.442,266.145,244.183z"/>
			</defs>
			<use xlink:href="#SVGID_1_"  style="overflow:visible;fill:#FFFFFF;"/>
			<clipPath id="SVGID_00000096745959200523764470000012353074581242961550_">
				<use xlink:href="#SVGID_1_"  style="overflow:visible;"/>
			</clipPath>
			<g style="clip-path:url(#SVGID_00000096745959200523764470000012353074581242961550_);">
				<path style="fill:#A4DEF6;" d="M204.781,270.944c2.777-4.295,7.137-5.459,7.137-5.459l10.451-3.874h9.979l10.447,3.874
					c0,0,4.361,1.164,7.137,5.459H204.781z"/>
				<path style="fill:#46C6E6;" d="M240.986,291.278h16.146c0-2.758-0.18-6.686-0.18-6.686
					c-0.949-16.511-12.982-19.107-12.982-19.107c-9.383-2.271-4.268,12.239-4.268,12.239
					C239.457,281.222,239.977,285.926,240.986,291.278z"/>
				<g>
					<rect x="220.51" y="251.813" style="fill:#A4DEF6;" width="13.697" height="13.354"/>
				</g>
				<g>
					<path style="fill:#6FCFF3;" d="M234.207,258.02v-6.206H220.51v3.074C224.418,258.139,229.123,258.551,234.207,258.02z"/>
				</g>
				<path style="fill:#46C6E6;" d="M248.789,291.278c0.262-7.198,0.182-9.178,0.117-11.633c-0.143-5.471-1.313-10.094-4.92-14.155
					c-0.006-0.003-0.016-0.005-0.016-0.005l-9.766-3.185c0,0,2.053,3.594-6.92,3.594c0,0-5.91-0.229-6.775-3.594l-9.916,3.185
					c0,0-8.477,2.085-9.93,11.007l4.984,9.162l-0.18,5.624H248.789z"/>
				<g>
					<path style="fill:#5C79BC;" d="M243.664,231.922c0-3.175-0.135-6.341-0.061-9.511c0.049-2.027,0.234-1.505-2.113-1.728
						c-3.252-0.309-4.34,5.731-4.566,8.347c-0.314,3.605,0.465,7.482,1.064,10.997c0.217,1.269,0.158,3.812,1.484,4.406
						c1.137,0.509,2.324-0.746,2.92-1.675c1.373-2.135,1.131-5.401,1.221-7.826C243.65,233.928,243.664,232.926,243.664,231.922z"/>
					<path style="fill:#A4DEF6;" d="M242.256,249.955c-1.385,5.417-3.822,6.909-3.822,6.909l-3.27,0.638
						c-1.881-0.238-5.127-1.006-5.127-1.006c-7.469-2.539-9.635-3.224-10.793-6.063c-0.049-0.12-5.887-20.388-5.887-20.388
						c-0.955-10.432,9.965-12.601,11.613-12.874c1.631-0.377,12.027-3.266,15.1,6.749
						C240.07,223.92,244.607,235.522,242.256,249.955z"/>
					<path style="fill:#4F69A3;" d="M212.236,220.47c-3.629,1.751-3.754,4.989-3.584,8.671c0.133,2.856,1.016,5.292,2.037,8.062
						c1.74,4.725,1.74,4.725,3.285,7.441c0,0,2.404,3.739,5.504,6.303c-0.898-3.556-1.148-6.21-1.967-8.942
						c-0.984-3.276-0.695-7.666,0.764-11.03c0,0,0.828-2.24,4.223-2.879c3.395-0.64,0,0,0,0L212.236,220.47"/>
					<path style="fill:#A4DEF6;" d="M218.199,241.301c0,0-1.848-4.022-4.75-1.64c0,0-1.32,1.031,0.307,3.724
						c0,0,2.365,3.87,5.195,1.725L218.199,241.301z"/>
					<path style="fill:#4F69A3;" d="M217.91,231.922c0,0,0.012,7.199,1.334,11.02l-1.402,0.278c0,0-0.738-4.939-3.281-4.998
						L217.91,231.922z"/>
					<path style="fill:#5C79BC;" d="M245.459,216.498c11.674,11.888-23.65,11.768-23.65,11.768s-3.707,1.712-9.572-7.796
						c0,0-1.582-7.436,15.121-9.779C227.357,210.69,238.396,209.338,245.459,216.498z"/>
				</g>
				<path style="fill:#46C6E6;" d="M214.516,291.278c0,0-15.084,0-15.094,0c0.006,0,0.053-3.581,0.061-3.836
					c0.113-3.522,0.336-7.071,0.971-10.544c0.908-4.961,3.316-9.364,8.623-10.624c2.428-0.578,4.588,0.891,5.902,2.89
					C214.979,269.164,217.379,272.125,214.516,291.278z"/>
			</g>
		</g>
	</g>
	<path style="fill:#FFFFFF;" d="M269.221,294.648c0,1.413-1.145,2.559-2.559,2.559h-79.783c-1.41,0-2.557-1.146-2.557-2.559l0,0
		c0-1.413,1.146-2.559,2.557-2.559h79.783C268.076,292.09,269.221,293.235,269.221,294.648L269.221,294.648z"/>
	<path style="fill:#FFFFFF;" d="M269.221,310.886c0,1.413-1.145,2.558-2.559,2.558h-79.783c-1.41,0-2.557-1.145-2.557-2.558l0,0
		c0-1.413,1.146-2.559,2.557-2.559h79.783C268.076,308.327,269.221,309.473,269.221,310.886L269.221,310.886z"/>
	<path style="fill:#FFFFFF;" d="M269.221,327.174c0,1.414-1.145,2.559-2.559,2.559h-79.783c-1.41,0-2.557-1.145-2.557-2.559l0,0
		c0-1.413,1.146-2.558,2.557-2.558h79.783C268.076,324.616,269.221,325.761,269.221,327.174L269.221,327.174z"/>
</g>
<path style="fill:#8DA4CE;" d="M424.136,186.147H321.843c-2.976,0-5.387,2.412-5.387,5.388v65.809c0,2.975,2.411,5.387,5.387,5.387
	h17.342l-3.414,20.199l25.269-20.199h63.097c2.976,0,5.388-2.412,5.388-5.387v-65.809
	C429.523,188.559,427.111,186.147,424.136,186.147z"/>
<g>
	<rect x="31.569" y="180.49" style="fill:#A5DBEF;" width="122.37" height="86.348"/>
	<rect x="31.569" y="180.49" style="fill:#6881BD;" width="122.37" height="8.088"/>
	<g>
		<path style="fill:#A4DEF6;" d="M138.816,184.287c0,1.249-1.012,2.262-2.262,2.262c-1.249,0-2.262-1.013-2.262-2.262
			c0-1.249,1.013-2.261,2.262-2.261C137.805,182.026,138.816,183.038,138.816,184.287z"/>
		<path style="fill:#6A54A1;" d="M145.148,184.287c0,1.249-1.012,2.262-2.262,2.262c-1.248,0-2.261-1.013-2.261-2.262
			c0-1.249,1.013-2.261,2.261-2.261C144.137,182.026,145.148,183.038,145.148,184.287z"/>
		<path style="fill:#6C3D85;" d="M151.201,184.287c0,1.249-1.012,2.262-2.262,2.262c-1.248,0-2.262-1.013-2.262-2.262
			c0-1.249,1.014-2.261,2.262-2.261C150.189,182.026,151.201,183.038,151.201,184.287z"/>
	</g>
	<rect x="39.3" y="195.815" style="fill:#00B4DB;" width="25.206" height="25.204"/>
	<rect x="39.3" y="229.736" style="fill:#00B4DB;" width="25.206" height="25.205"/>
	<g>
		<path style="fill:none;stroke:#AEE0EF;stroke-width:0.75;stroke-miterlimit:10;" d="M60.037,242.926
			c0.015-0.195,0.025-0.39,0.025-0.588c0-0.195-0.011-0.392-0.025-0.585c-1.611-0.685-1.832-1.483-0.779-2.861
			c-0.164-0.332-0.35-0.651-0.556-0.954c-1.716,0.247-2.284-0.323-2.038-2.036c-0.304-0.209-0.623-0.395-0.955-0.56
			c-1.379,1.053-2.174,0.833-2.861-0.778c-0.194-0.015-0.388-0.025-0.586-0.025c-0.198,0-0.393,0.011-0.584,0.025
			c-0.686,1.611-1.485,1.831-2.864,0.778c-0.332,0.165-0.65,0.351-0.952,0.56c0.245,1.713-0.324,2.283-2.037,2.036
			c-0.209,0.303-0.394,0.622-0.559,0.954c1.053,1.378,0.832,2.177-0.779,2.861c-0.016,0.193-0.025,0.39-0.025,0.585
			c0,0.198,0.01,0.392,0.025,0.588c1.611,0.685,1.832,1.482,0.779,2.861c0.165,0.333,0.35,0.65,0.559,0.955
			c1.713-0.248,2.282,0.32,2.037,2.036c0.302,0.207,0.62,0.393,0.952,0.557c1.379-1.054,2.179-0.83,2.864,0.778
			c0.191,0.017,0.386,0.025,0.584,0.025c0.198,0,0.392-0.009,0.586-0.025c0.688-1.608,1.482-1.832,2.861-0.776
			c0.332-0.165,0.651-0.352,0.955-0.559c-0.246-1.716,0.322-2.284,2.036-2.036c0.208-0.305,0.394-0.622,0.558-0.955
			C58.205,244.408,58.426,243.61,60.037,242.926z"/>
		<path style="fill:none;stroke:#AEE0EF;stroke-width:0.75;stroke-miterlimit:10;" d="M55.893,242.338
			c0,2.006-1.625,3.634-3.631,3.634c-2.006,0-3.631-1.628-3.631-3.634c0-2.005,1.625-3.63,3.631-3.63
			C54.268,238.708,55.893,240.333,55.893,242.338z"/>
		<g>
			<path style="fill:none;stroke:#AEE0EF;stroke-width:0.75;stroke-miterlimit:10;" d="M52.262,247.698
				c-2.959,0-5.359-2.398-5.359-5.358c0-2.961,2.4-5.362,5.359-5.362"/>
			<g>
				<g>
					<path style="fill:none;stroke:#AEE0EF;stroke-width:0.75;stroke-miterlimit:10;" d="M52.262,236.977
						c0.168,0,0.335,0.008,0.5,0.023"/>
					<path style="fill:none;stroke:#AEE0EF;stroke-width:0.75;stroke-miterlimit:10;stroke-dasharray:1.0544,1.0544;" d="
						M53.797,237.201c2.212,0.66,3.826,2.712,3.826,5.139c0,2.609-1.867,4.782-4.336,5.261"/>
					<path style="fill:none;stroke:#AEE0EF;stroke-width:0.75;stroke-miterlimit:10;" d="M52.762,247.676
						c-0.165,0.015-0.332,0.022-0.5,0.022"/>
				</g>
			</g>
		</g>
	</g>
	<g>
		<path style="fill:none;stroke:#AEE0EF;stroke-width:0.75;stroke-miterlimit:10;" d="M57.946,216.164
			c0,0.765-0.621,1.386-1.384,1.386h-8.797c-0.766,0-1.385-0.621-1.385-1.386v-8.796c0-0.766,0.619-1.386,1.385-1.386h8.797
			c0.763,0,1.384,0.62,1.384,1.386V216.164z"/>
		<path style="fill:none;stroke:#AEE0EF;stroke-width:0.75;stroke-miterlimit:10;" d="M47.619,211.221v-2.911
			c0-0.602,0.485-1.088,1.088-1.088h1.01"/>
		<g>
			
				<line style="fill:none;stroke:#AEE0EF;stroke-width:0.75;stroke-miterlimit:10;" x1="48.844" y1="216.311" x2="49.982" y2="216.311"/>
			
				<line style="fill:none;stroke:#AEE0EF;stroke-width:0.75;stroke-miterlimit:10;" x1="50.553" y1="216.311" x2="51.692" y2="216.311"/>
			
				<line style="fill:none;stroke:#AEE0EF;stroke-width:0.75;stroke-miterlimit:10;" x1="52.262" y1="216.311" x2="53.401" y2="216.311"/>
			
				<line style="fill:none;stroke:#AEE0EF;stroke-width:0.75;stroke-miterlimit:10;" x1="53.971" y1="216.311" x2="55.11" y2="216.311"/>
		</g>
		<path style="fill:none;stroke:#AEE0EF;stroke-width:0.75;stroke-miterlimit:10;" d="M52.162,214.333
			c-1.416,0-2.564-1.151-2.564-2.565c0-1.419,1.148-2.568,2.564-2.568"/>
		<g>
			<g>
				<path style="fill:none;stroke:#AEE0EF;stroke-width:0.75;stroke-miterlimit:10;" d="M52.162,209.199
					c0.17,0,0.337,0.017,0.498,0.048"/>
				<path style="fill:none;stroke:#AEE0EF;stroke-width:0.75;stroke-miterlimit:10;stroke-dasharray:1.0077,1.0077;" d="
					M53.586,209.63c0.689,0.46,1.145,1.246,1.145,2.138c0,1.066-0.654,1.984-1.586,2.37"/>
				<path style="fill:none;stroke:#AEE0EF;stroke-width:0.75;stroke-miterlimit:10;" d="M52.66,214.285
					c-0.161,0.031-0.328,0.048-0.498,0.048"/>
			</g>
		</g>
		<g>
			<path style="fill:none;stroke:#AEE0EF;stroke-width:0.75;stroke-miterlimit:10;" d="M56.325,205.982H48v-3.631
				c0-1.69,1.375-3.065,3.065-3.065h2.196c1.691,0,3.063,1.375,3.063,3.065V205.982z M49.598,205.982h5.133v-3.631
				c0-0.809-0.659-1.468-1.469-1.468h-2.196c-0.81,0-1.468,0.658-1.468,1.468V205.982z"/>
		</g>
		<g>
			<g>
				
					<line style="fill:none;stroke:#AEE0EF;stroke-width:0.75;stroke-miterlimit:10;" x1="48.844" y1="205.733" x2="48.844" y2="205.233"/>
				<path style="fill:none;stroke:#AEE0EF;stroke-width:0.75;stroke-miterlimit:10;stroke-dasharray:1.1344,1.1344;" d="
					M48.844,204.099v-1.464c0,0-0.084-1.477,1.025-2.17"/>
				<path style="fill:none;stroke:#AEE0EF;stroke-width:0.75;stroke-miterlimit:10;" d="M50.389,200.231
					c0.148-0.045,0.313-0.079,0.491-0.099"/>
			</g>
		</g>
		<path style="fill:#AEE0EF;" d="M52.692,211.906l0.336-1.738h-1.612l0.276,1.78c-0.208,0.159-0.345,0.409-0.345,0.692
			c0,0.481,0.393,0.872,0.873,0.872c0.484,0,0.875-0.391,0.875-0.872C53.096,212.331,52.936,212.063,52.692,211.906z"/>
	</g>
	<g>
		<path style="fill:#FFFFFF;" d="M146.678,197.17c0,0.828-0.669,1.499-1.496,1.499H76.186c-0.826,0-1.496-0.671-1.496-1.499l0,0
			c0-0.827,0.67-1.496,1.496-1.496h68.996C146.009,195.674,146.678,196.343,146.678,197.17L146.678,197.17z"/>
		<path style="fill:#FFFFFF;" d="M146.678,205.424c0,0.827-0.669,1.498-1.496,1.498H76.186c-0.826,0-1.496-0.671-1.496-1.498l0,0
			c0-0.826,0.67-1.497,1.496-1.497h68.996C146.009,203.927,146.678,204.598,146.678,205.424L146.678,205.424z"/>
		<path style="fill:#FFFFFF;" d="M146.678,213.677c0,0.829-0.669,1.498-1.496,1.498H76.186c-0.826,0-1.496-0.669-1.496-1.498l0,0
			c0-0.827,0.67-1.497,1.496-1.497h68.996C146.009,212.18,146.678,212.85,146.678,213.677L146.678,213.677z"/>
		<path style="fill:#FFFFFF;" d="M107.721,221.931c0,0.827-0.673,1.499-1.498,1.499H76.186c-0.826,0-1.496-0.672-1.496-1.499l0,0
			c0-0.827,0.67-1.498,1.496-1.498h30.037C107.048,220.433,107.721,221.104,107.721,221.931L107.721,221.931z"/>
		<path style="fill:#FFFFFF;" d="M146.678,229.959c0,0.826-0.669,1.498-1.496,1.498H76.186c-0.826,0-1.496-0.672-1.496-1.498l0,0
			c0-0.827,0.67-1.498,1.496-1.498h68.996C146.009,228.461,146.678,229.132,146.678,229.959L146.678,229.959z"/>
		<path style="fill:#FFFFFF;" d="M146.678,238.211c0,0.829-0.669,1.498-1.496,1.498H76.186c-0.826,0-1.496-0.669-1.496-1.498l0,0
			c0-0.826,0.67-1.496,1.496-1.496h68.996C146.009,236.715,146.678,237.385,146.678,238.211L146.678,238.211z"/>
		<path style="fill:#FFFFFF;" d="M146.678,246.466c0,0.827-0.669,1.498-1.496,1.498H76.186c-0.826,0-1.496-0.671-1.496-1.498l0,0
			c0-0.826,0.67-1.499,1.496-1.499h68.996C146.009,244.967,146.678,245.64,146.678,246.466L146.678,246.466z"/>
		<path style="fill:#FFFFFF;" d="M126.807,254.718c0,0.829-0.67,1.499-1.5,1.499H76.186c-0.826,0-1.496-0.67-1.496-1.499l0,0
			c0-0.827,0.67-1.496,1.496-1.496h49.121C126.137,253.222,126.807,253.891,126.807,254.718L126.807,254.718z"/>
	</g>
</g>
<g>
	<path style="fill:#00C2F3;" d="M416.588,179.827H314.295c-2.977,0-5.387,2.412-5.387,5.388v65.809c0,2.975,2.41,5.387,5.387,5.387
		h17.342l-3.414,20.199l25.268-20.199h63.098c2.975,0,5.387-2.412,5.387-5.387v-65.809
		C421.975,182.239,419.563,179.827,416.588,179.827z"/>
	<path style="fill:#A9C2E5;" d="M328.016,244.551c-3.189,0-5.775-2.586-5.775-5.775v-58.948h-7.945
		c-2.977,0-5.387,2.412-5.387,5.388v65.809c0,2.975,2.41,5.387,5.387,5.387h17.342l-3.414,20.199l25.268-20.199h63.098
		c2.975,0,5.387-2.412,5.387-5.387v-6.473H328.016z"/>
	<g>
		<circle style="fill:#FFFFFF;" cx="346.383" cy="216.345" r="6.75"/>
		<circle style="fill:#FFFFFF;" cx="365.441" cy="216.345" r="6.75"/>
		<circle style="fill:#FFFFFF;" cx="384.5" cy="216.345" r="6.75"/>
	</g>
</g>
<polygon style="fill:#8DA4CE;" points="274.735,56.15 274.735,64.117 274.735,141.208 382.642,141.208 382.642,64.117 
	382.642,56.15 "/>
<rect x="84.852" y="56.16" style="fill:#8DA4CE;" width="120.511" height="85.037"/>
<g>
	<g>
		<rect x="267.779" y="49.943" style="fill:#A5DBEF;" width="107.906" height="85.057"/>
		<rect x="267.779" y="49.943" style="fill:#6881BD;" width="107.906" height="7.967"/>
		<g>
			<path style="fill:#A4DEF6;" d="M360.789,53.684c0,1.23-0.996,2.226-2.227,2.226c-1.23,0-2.228-0.996-2.228-2.226
				c0-1.231,0.998-2.227,2.228-2.227C359.793,51.457,360.789,52.453,360.789,53.684z"/>
			<path style="fill:#6A54A1;" d="M367.027,53.684c0,1.23-0.998,2.226-2.229,2.226c-1.23,0-2.229-0.996-2.229-2.226
				c0-1.231,0.998-2.227,2.229-2.227C366.029,51.457,367.027,52.453,367.027,53.684z"/>
			<path style="fill:#6C3D85;" d="M372.99,53.684c0,1.23-0.998,2.226-2.228,2.226c-1.23,0-2.227-0.996-2.227-2.226
				c0-1.231,0.996-2.227,2.227-2.227C371.992,51.457,372.99,52.453,372.99,53.684z"/>
		</g>
		<rect x="275.012" y="65.01" style="fill:#FFFFFF;" width="93.441" height="63.266"/>
	</g>
	<polygon style="fill:#AED38F;" points="275.012,128.275 299.15,90.404 321.733,116.246 340.139,94.416 368.453,128.275 	"/>
	<circle style="fill:#FDD371;" cx="321.732" cy="84.229" r="8.242"/>
	<path style="fill:#A5DBEF;" d="M307.615,77.484c0,1.723-1.395,3.119-3.117,3.119h-16.484c-1.723,0-3.119-1.396-3.119-3.119l0,0
		c0-1.721,1.396-3.117,3.119-3.117h16.484C306.221,74.367,307.615,75.764,307.615,77.484L307.615,77.484z"/>
	<path style="fill:#A5DBEF;" d="M360.789,87.285c0,1.725-1.395,3.119-3.117,3.119h-16.484c-1.725,0-3.119-1.395-3.119-3.119l0,0
		c0-1.721,1.395-3.119,3.119-3.119h16.484C359.395,84.166,360.789,85.564,360.789,87.285L360.789,87.285z"/>
</g>
<g>
	<rect x="77.857" y="49.953" style="fill:#A5DBEF;" width="120.512" height="85.037"/>
	<rect x="77.857" y="49.953" style="fill:#6881BD;" width="120.512" height="7.966"/>
	<g>
		<path style="fill:#A4DEF6;" d="M183.475,53.692c0,1.23-0.996,2.228-2.227,2.228c-1.23,0-2.227-0.997-2.227-2.228
			c0-1.23,0.996-2.226,2.227-2.226C182.479,51.466,183.475,52.462,183.475,53.692z"/>
		<path style="fill:#6A54A1;" d="M189.711,53.692c0,1.23-0.996,2.228-2.227,2.228s-2.227-0.997-2.227-2.228
			c0-1.23,0.996-2.226,2.227-2.226S189.711,52.462,189.711,53.692z"/>
		<path style="fill:#6C3D85;" d="M195.674,53.692c0,1.23-0.998,2.228-2.229,2.228c-1.229,0-2.227-0.997-2.227-2.228
			c0-1.23,0.998-2.226,2.227-2.226C194.676,51.466,195.674,52.462,195.674,53.692z"/>
	</g>
	<g>
		<g>
			<path style="fill:#FFFFFF;" d="M188.439,69.534c0,0.771-0.625,1.396-1.396,1.396h-64.262c-0.771,0-1.395-0.625-1.395-1.396l0,0
				c0-0.771,0.623-1.395,1.395-1.395h64.262C187.814,68.14,188.439,68.764,188.439,69.534L188.439,69.534z"/>
			<path style="fill:#FFFFFF;" d="M188.439,77.221c0,0.771-0.625,1.396-1.396,1.396h-64.262c-0.771,0-1.395-0.625-1.395-1.396l0,0
				c0-0.769,0.623-1.395,1.395-1.395h64.262C187.814,75.826,188.439,76.452,188.439,77.221L188.439,77.221z"/>
			<path style="fill:#FFFFFF;" d="M188.439,84.908c0,0.771-0.625,1.396-1.396,1.396h-64.262c-0.771,0-1.395-0.624-1.395-1.396l0,0
				c0-0.77,0.623-1.395,1.395-1.395h64.262C187.814,83.514,188.439,84.139,188.439,84.908L188.439,84.908z"/>
			<path style="fill:#FFFFFF;" d="M152.152,92.596c0,0.771-0.625,1.396-1.395,1.396h-27.976c-0.771,0-1.395-0.625-1.395-1.396l0,0
				c0-0.771,0.623-1.395,1.395-1.395h27.976C151.527,91.201,152.152,91.825,152.152,92.596L152.152,92.596z"/>
			<path style="fill:#FFFFFF;" d="M154.24,100.073c0,0.771-0.625,1.396-1.396,1.396H87.662c-0.77,0-1.395-0.625-1.395-1.396l0,0
				c0-0.771,0.625-1.394,1.395-1.394h65.182C153.615,98.679,154.24,99.303,154.24,100.073L154.24,100.073z"/>
			<path style="fill:#FFFFFF;" d="M154.24,107.761c0,0.771-0.625,1.396-1.396,1.396H87.662c-0.77,0-1.395-0.625-1.395-1.396l0,0
				c0-0.771,0.625-1.394,1.395-1.394h65.182C153.615,106.366,154.24,106.99,154.24,107.761L154.24,107.761z"/>
			<path style="fill:#FFFFFF;" d="M154.24,115.448c0,0.771-0.625,1.396-1.396,1.396H87.662c-0.77,0-1.395-0.625-1.395-1.396l0,0
				c0-0.771,0.625-1.394,1.395-1.394h65.182C153.615,114.054,154.24,114.678,154.24,115.448L154.24,115.448z"/>
			<path style="fill:#FFFFFF;" d="M143.596,123.135c0,0.771-0.627,1.396-1.396,1.396H87.662c-0.77,0-1.395-0.625-1.395-1.396l0,0
				c0-0.77,0.625-1.395,1.395-1.395h54.537C142.969,121.74,143.596,122.365,143.596,123.135L143.596,123.135z"/>
			<rect x="161.332" y="95.904" style="fill:#FFFFFF;" width="28.627" height="28.627"/>
		</g>
		<g>
			<g>
				<defs>
					<path id="SVGID_00000160174929969036141480000016048260536302995076_" d="M116.223,80.199c0,8.08-6.549,14.63-14.629,14.63
						s-14.629-6.55-14.629-14.63c0-8.078,6.549-14.628,14.629-14.628S116.223,72.121,116.223,80.199z"/>
				</defs>
				<use xlink:href="#SVGID_00000160174929969036141480000016048260536302995076_"  style="overflow:visible;fill:#FFFFFF;"/>
				<clipPath id="SVGID_00000109750987757032424610000002074245927921744261_">
					<use xlink:href="#SVGID_00000160174929969036141480000016048260536302995076_"  style="overflow:visible;"/>
				</clipPath>
				<g style="clip-path:url(#SVGID_00000109750987757032424610000002074245927921744261_);">
					<path style="fill:#5C79BC;" d="M98.359,68.269c0,0-4.68,1.408-4.24,8.817v15.972h5.326L98.359,68.269z"/>
					<path style="fill:#5C79BC;" d="M97.828,73.058v22.944h10.18V76.674c0,0,0.67-7.415-4.195-8.325
						C103.813,68.349,97.828,67.265,97.828,73.058z"/>
					<rect x="97.572" y="87.748" style="fill:#A4DEF6;" width="7.08" height="3.506"/>
					<path style="fill:#A4DEF6;" d="M112.457,97.034h-4.787l-0.857-3.456c0,0-0.693-5.247,2.902-5.32c0,0,1.867,1.31,2.377,4.389
						C112.092,92.646,112.494,95.107,112.457,97.034z"/>
					<path style="fill:#A4DEF6;" d="M95.83,97.034l0.645-2.607c0,0,1.145-5.823-2.453-5.896c0,0-2.607,2.149-2.418,8.504H95.83"/>
					<rect x="99.445" y="80.672" style="fill:#A4DEF6;" width="4.367" height="6.396"/>
					<path style="fill:#6FCFF3;" d="M103.813,83.283v-2.611h-4.367v3.761C100.887,84.389,102.596,84.127,103.813,83.283z"/>
					<path style="fill:#A4DEF6;" d="M93.654,89.107c0.981-1.517,2.521-1.929,2.521-1.929l3.691-1.367h3.523l4.514,1.367
						c0,0,1.541,0.412,2.521,1.929H93.654z"/>
					<path style="fill:#46C6E6;" d="M94.559,94.303v2.731h14.178l-0.168-3.173c-0.174-6.113,0.508-6.114,0.508-6.114
						c-0.639-0.426-1.172-0.568-1.172-0.568l-3.555-1.012c0,0-0.771,3.314-3.703,3.314c0,0-2.271-1.224-1.656-3.346l-2.815,1.043
						c0,0-1.115,0.342-2.154,1.351C94.021,88.53,94.523,88.838,94.559,94.303z"/>
					<path style="fill:#A4DEF6;" d="M104.289,81.182c-0.15,0.346-0.357,0.666-0.648,0.945c-0.725,0.699-1.574,1.265-2.504,1.647
						c-1.145,0.468-2.867,0.527-3.775-0.413c-0.734-0.762-1.139-1.918-1.459-2.908c-0.619-1.926-0.611-4.03-0.455-6.03
						c0.037-0.456,0.084-0.913,0.158-1.364c0.711-4.361,4.445-4.352,4.445-4.352c2.816-0.123,5.389,1.209,5.822,4.179
						c0.166,1.137-0.053,2.358-0.109,3.497c-0.043,0.835-0.145,1.669-0.412,2.467C105.08,79.662,104.629,80.396,104.289,81.182z"/>
					<path style="fill:#A4DEF6;" d="M104.652,77.855c0,0,0.373-1.552,1.566-0.91c0,0,0.539,0.272,0.15,1.338
						c0,0-0.564,1.534-1.717,0.973V77.855z"/>
					<path style="fill:#5C79BC;" d="M95.164,73.559c-0.201-5.987,5.482-5.704,5.482-5.704c5.586,0.23,5.863,2.76,5.863,2.76
						c0.678,3.211-0.291,6.331-0.291,6.331c-1.188-0.26-1.387,1.33-1.387,1.33c0.123-2.546-0.084-2.7-0.084-2.7
						c-1.813-0.019-3.117-0.213-3.117-0.213l-0.082-1.774l-0.438,1.681c0,0-2.568-0.057-5.236-0.69c0,0-0.711,0.051-0.711,2.212
						V73.559z"/>
				</g>
			</g>
		</g>
		<g>
			<g>
				<g>
					<rect x="169.928" y="109.132" style="fill:none;stroke:#5C79BC;stroke-miterlimit:10;" width="1.58" height="1.581"/>
					<rect x="173.213" y="109.132" style="fill:none;stroke:#5C79BC;stroke-miterlimit:10;" width="1.58" height="1.581"/>
					<rect x="176.498" y="109.132" style="fill:none;stroke:#5C79BC;stroke-miterlimit:10;" width="1.58" height="1.581"/>
					<rect x="179.785" y="109.132" style="fill:none;stroke:#5C79BC;stroke-miterlimit:10;" width="1.58" height="1.581"/>
				</g>
				<g>
					<rect x="169.928" y="111.969" style="fill:none;stroke:#5C79BC;stroke-miterlimit:10;" width="1.58" height="1.581"/>
					<rect x="173.213" y="111.969" style="fill:none;stroke:#5C79BC;stroke-miterlimit:10;" width="1.58" height="1.581"/>
					<rect x="176.498" y="111.969" style="fill:none;stroke:#5C79BC;stroke-miterlimit:10;" width="1.58" height="1.581"/>
					<rect x="179.785" y="111.969" style="fill:none;stroke:#5C79BC;stroke-miterlimit:10;" width="1.58" height="1.581"/>
				</g>
				<g>
					<rect x="169.928" y="114.806" style="fill:none;stroke:#5C79BC;stroke-miterlimit:10;" width="1.58" height="1.58"/>
					<rect x="173.213" y="114.806" style="fill:none;stroke:#5C79BC;stroke-miterlimit:10;" width="1.58" height="1.58"/>
					<rect x="176.498" y="114.806" style="fill:none;stroke:#5C79BC;stroke-miterlimit:10;" width="1.58" height="1.58"/>
					<rect x="179.785" y="114.806" style="fill:none;stroke:#5C79BC;stroke-miterlimit:10;" width="1.58" height="1.58"/>
				</g>
			</g>
			<path style="fill:none;stroke:#5C79BC;stroke-miterlimit:10;" d="M184.043,104.593h-1.129v0.874c0,0.384-0.311,0.695-0.693,0.695
				c-0.385,0-0.695-0.312-0.695-0.695v-0.874h-2.994v0.874c0,0.384-0.311,0.695-0.695,0.695c-0.383,0-0.693-0.312-0.693-0.695
				v-0.874h-2.992v0.874c0,0.384-0.313,0.695-0.695,0.695c-0.385,0-0.695-0.312-0.695-0.695v-0.874h-2.992v0.874
				c0,0.384-0.313,0.695-0.695,0.695c-0.385,0-0.695-0.312-0.695-0.695v-0.874h-1.127c-0.746,0-1.352,0.604-1.352,1.35v1.351h19.494
				v-1.351C185.393,105.197,184.787,104.593,184.043,104.593z"/>
			<g>
				<line style="fill:none;stroke:#5C79BC;stroke-miterlimit:10;" x1="183.658" y1="117.125" x2="183.658" y2="115.646"/>
				<line style="fill:none;stroke:#5C79BC;stroke-miterlimit:10;" x1="183.658" y1="114.907" x2="183.658" y2="113.43"/>
				<line style="fill:none;stroke:#5C79BC;stroke-miterlimit:10;" x1="183.658" y1="112.688" x2="183.658" y2="111.211"/>
				<line style="fill:none;stroke:#5C79BC;stroke-miterlimit:10;" x1="183.658" y1="110.472" x2="183.658" y2="108.993"/>
			</g>
			<polyline style="fill:none;stroke:#5C79BC;stroke-miterlimit:10;" points="167.727,113.367 167.727,117.378 169.072,117.378 			
				"/>
			<path style="fill:none;stroke:#5C79BC;stroke-miterlimit:10;" d="M184.043,104.593h-1.129v0.874c0,0.384-0.311,0.695-0.693,0.695
				c-0.385,0-0.695-0.312-0.695-0.695v-0.874h-2.994v0.874c0,0.384-0.311,0.695-0.695,0.695c-0.383,0-0.693-0.312-0.693-0.695
				v-0.874h-2.992v0.874c0,0.384-0.313,0.695-0.695,0.695c-0.385,0-0.695-0.312-0.695-0.695v-0.874h-2.992v0.874
				c0,0.384-0.313,0.695-0.695,0.695c-0.385,0-0.695-0.312-0.695-0.695v-0.874h-1.127c-0.746,0-1.352,0.604-1.352,1.35v11.313
				c0,0.746,0.605,1.351,1.352,1.351h16.793c0.744,0,1.35-0.604,1.35-1.351v-11.313
				C185.393,105.197,184.787,104.593,184.043,104.593z"/>
			<g>
				<path style="fill:none;stroke:#5C79BC;stroke-miterlimit:10;" d="M169.768,105.467c0,0.384-0.313,0.695-0.695,0.695l0,0
					c-0.385,0-0.695-0.312-0.695-0.695v-2.292c0-0.384,0.311-0.694,0.695-0.694l0,0c0.383,0,0.695,0.311,0.695,0.694V105.467z"/>
				<path style="fill:none;stroke:#5C79BC;stroke-miterlimit:10;" d="M174.15,105.467c0,0.384-0.313,0.695-0.695,0.695l0,0
					c-0.385,0-0.695-0.312-0.695-0.695v-2.292c0-0.384,0.311-0.694,0.695-0.694l0,0c0.383,0,0.695,0.311,0.695,0.694V105.467z"/>
				<path style="fill:none;stroke:#5C79BC;stroke-miterlimit:10;" d="M178.531,105.467c0,0.384-0.311,0.695-0.695,0.695l0,0
					c-0.383,0-0.693-0.312-0.693-0.695v-2.292c0-0.384,0.311-0.694,0.693-0.694l0,0c0.385,0,0.695,0.311,0.695,0.694V105.467z"/>
				<path style="fill:none;stroke:#5C79BC;stroke-miterlimit:10;" d="M182.914,105.467c0,0.384-0.311,0.695-0.693,0.695l0,0
					c-0.385,0-0.695-0.312-0.695-0.695v-2.292c0-0.384,0.311-0.694,0.695-0.694l0,0c0.383,0,0.693,0.311,0.693,0.694V105.467z"/>
			</g>
		</g>
	</g>
</g>
</svg>
